<svg width="720" height="418" viewBox="0 0 720 418" fill="none" xmlns="http://www.w3.org/2000/svg">
<rect x="65" y="172" width="44" height="99" rx="22" fill="#E91E63"/>
<rect x="390" y="172" width="44" height="169" rx="22" fill="#E91E63"/>
<rect x="325" y="172" width="44" height="99" rx="22" fill="#E91E63"/>
<rect x="130" y="127" width="44" height="144" rx="22" fill="#E91E63"/>
<rect x="455" y="127" width="44" height="144" rx="22" fill="#E91E63"/>
<rect x="260" y="127" width="44" height="144" rx="22" fill="#E91E63"/>
<rect x="585" y="127" width="44" height="144" rx="22" fill="#E91E63"/>
<rect x="195" y="78" width="44" height="193" rx="22" fill="#E91E63"/>
<rect x="520" y="78" width="44" height="193" rx="22" fill="#E91E63"/>
<path d="M68.736 309.672C64.896 322.643 60.8853 334.803 56.704 346.152C52.5227 357.501 47.9573 368.509 43.008 379.176C41.216 383.016 39.424 386.259 37.632 388.904C35.84 391.635 33.8773 393.853 31.744 395.56C29.6107 397.352 27.1787 398.632 24.448 399.4C21.8027 400.253 18.688 400.68 15.104 400.68C12.1173 400.68 9.344 400.381 6.784 399.784C4.30933 399.272 2.26133 398.675 0.64 397.992L3.968 382.76C5.93067 383.443 7.68 383.912 9.216 384.168C10.752 384.424 12.3733 384.552 14.08 384.552C17.4933 384.552 20.096 383.613 21.888 381.736C23.7653 379.944 25.344 377.427 26.624 374.184C22.272 365.651 17.92 356.093 13.568 345.512C9.216 334.845 5.12 322.899 1.28 309.672H21.504C22.3573 313 23.3387 316.627 24.448 320.552C25.6427 324.392 26.88 328.317 28.16 332.328C29.44 336.253 30.72 340.093 32 343.848C33.3653 347.603 34.6453 351.016 35.84 354.088C36.9493 351.016 38.1013 347.603 39.296 343.848C40.4907 340.093 41.6427 336.253 42.752 332.328C43.9467 328.317 45.056 324.392 46.08 320.552C47.1893 316.627 48.1707 313 49.024 309.672H68.736ZM78.32 292.904L97.392 289.832V309.672H120.304V325.544H97.392V349.224C97.392 353.235 98.0747 356.435 99.44 358.824C100.891 361.213 103.749 362.408 108.016 362.408C110.064 362.408 112.155 362.237 114.288 361.896C116.507 361.469 118.512 360.915 120.304 360.232L122.992 375.08C120.688 376.019 118.128 376.829 115.312 377.512C112.496 378.195 109.04 378.536 104.944 378.536C99.7387 378.536 95.4293 377.853 92.016 376.488C88.6027 375.037 85.872 373.075 83.824 370.6C81.776 368.04 80.3253 364.968 79.472 361.384C78.704 357.8 78.32 353.832 78.32 349.48V292.904ZM172.827 341.288C172.827 335.144 172.016 330.792 170.395 328.232C168.859 325.672 166.171 324.392 162.331 324.392C161.136 324.392 159.899 324.477 158.619 324.648C157.339 324.733 156.102 324.861 154.907 325.032V377H135.835V311.976C137.456 311.549 139.334 311.123 141.467 310.696C143.686 310.184 145.99 309.757 148.379 309.416C150.854 308.989 153.371 308.691 155.931 308.52C158.491 308.264 161.008 308.136 163.483 308.136C168.347 308.136 172.272 308.776 175.259 310.056C178.331 311.251 180.848 312.701 182.811 314.408C185.542 312.445 188.656 310.909 192.155 309.8C195.739 308.691 199.024 308.136 202.011 308.136C207.387 308.136 211.782 308.904 215.195 310.44C218.694 311.891 221.467 313.981 223.515 316.712C225.563 319.443 226.971 322.685 227.739 326.44C228.507 330.195 228.891 334.376 228.891 338.984V377H209.819V341.288C209.819 335.144 209.008 330.792 207.387 328.232C205.851 325.672 203.163 324.392 199.323 324.392C198.299 324.392 196.848 324.648 194.971 325.16C193.179 325.672 191.686 326.312 190.491 327.08C191.088 329.043 191.472 331.133 191.643 333.352C191.814 335.485 191.899 337.789 191.899 340.264V377H172.827V341.288ZM289.346 343.848C289.346 337.96 288.023 333.267 285.378 329.768C282.733 326.184 278.807 324.392 273.602 324.392C271.895 324.392 270.317 324.477 268.866 324.648C267.415 324.733 266.221 324.861 265.282 325.032V359.464C266.477 360.232 268.013 360.872 269.89 361.384C271.853 361.896 273.815 362.152 275.778 362.152C284.823 362.152 289.346 356.051 289.346 343.848ZM308.802 343.336C308.802 348.541 308.162 353.277 306.882 357.544C305.602 361.811 303.725 365.48 301.25 368.552C298.775 371.624 295.703 374.013 292.034 375.72C288.365 377.427 284.141 378.28 279.362 378.28C276.717 378.28 274.242 378.024 271.938 377.512C269.634 377 267.415 376.275 265.282 375.336V400.68H246.21V311.976C247.917 311.464 249.879 310.995 252.098 310.568C254.317 310.056 256.621 309.629 259.01 309.288C261.485 308.947 263.959 308.691 266.434 308.52C268.994 308.264 271.426 308.136 273.73 308.136C279.277 308.136 284.226 308.989 288.578 310.696C292.93 312.317 296.599 314.664 299.586 317.736C302.573 320.723 304.834 324.392 306.37 328.744C307.991 333.096 308.802 337.96 308.802 343.336ZM344.708 378.92C342.404 378.92 340.015 378.749 337.54 378.408C335.151 378.152 332.847 377.768 330.628 377.256C328.495 376.829 326.532 376.36 324.74 375.848C322.948 375.251 321.583 374.696 320.644 374.184L323.716 361C325.508 361.853 328.111 362.835 331.524 363.944C334.937 364.968 339.161 365.48 344.196 365.48C350.937 365.48 355.801 364.2 358.788 361.64C361.775 358.995 363.268 355.496 363.268 351.144C363.268 348.328 362.671 345.981 361.476 344.104C360.367 342.227 358.788 340.733 356.74 339.624C354.777 338.429 352.473 337.619 349.828 337.192C347.268 336.68 344.537 336.424 341.636 336.424H336.388V323.88H342.788C344.751 323.88 346.713 323.709 348.676 323.368C350.724 322.941 352.559 322.259 354.18 321.32C355.801 320.296 357.124 318.973 358.148 317.352C359.172 315.731 359.684 313.64 359.684 311.08C359.684 309.032 359.3 307.283 358.532 305.832C357.764 304.381 356.74 303.187 355.46 302.248C354.265 301.309 352.857 300.627 351.236 300.2C349.615 299.773 347.908 299.56 346.116 299.56C342.276 299.56 338.863 300.157 335.876 301.352C332.889 302.461 330.244 303.741 327.94 305.192L322.308 293.672C323.503 292.904 324.953 292.093 326.66 291.24C328.367 290.387 330.244 289.576 332.292 288.808C334.425 288.04 336.687 287.443 339.076 287.016C341.465 286.504 343.983 286.248 346.628 286.248C351.577 286.248 355.844 286.845 359.428 288.04C363.012 289.235 365.956 290.941 368.26 293.16C370.649 295.293 372.399 297.853 373.508 300.84C374.703 303.741 375.3 306.941 375.3 310.44C375.3 314.536 374.148 318.205 371.844 321.448C369.625 324.691 366.724 327.165 363.14 328.872C367.748 330.493 371.545 333.181 374.532 336.936C377.604 340.691 379.14 345.512 379.14 351.4C379.14 355.325 378.457 358.995 377.092 362.408C375.727 365.736 373.636 368.637 370.82 371.112C368.004 373.501 364.42 375.421 360.068 376.872C355.801 378.237 350.681 378.92 344.708 378.92ZM445.592 400.936C444.653 400.936 443.501 400.808 442.136 400.552C440.685 400.296 439.619 399.997 438.936 399.656L440.088 392.872C440.685 393.043 441.496 393.213 442.52 393.384C443.544 393.555 444.525 393.64 445.464 393.64C450.499 393.64 453.827 392.232 455.448 389.416C457.155 386.6 458.008 382.376 458.008 376.744V310.824H466.328V376.36C466.328 384.723 464.749 390.909 461.592 394.92C458.435 398.931 453.101 400.936 445.592 400.936ZM468.248 290.856C468.248 292.819 467.651 294.397 466.456 295.592C465.261 296.701 463.811 297.256 462.104 297.256C460.397 297.256 458.947 296.701 457.752 295.592C456.557 294.397 455.96 292.819 455.96 290.856C455.96 288.893 456.557 287.357 457.752 286.248C458.947 285.053 460.397 284.456 462.104 284.456C463.811 284.456 465.261 285.053 466.456 286.248C467.651 287.357 468.248 288.893 468.248 290.856ZM539.199 374.696C536.724 375.379 533.396 376.147 529.215 377C525.034 377.853 519.914 378.28 513.855 378.28C508.906 378.28 504.767 377.555 501.439 376.104C498.111 374.653 495.423 372.605 493.375 369.96C491.327 367.315 489.834 364.115 488.895 360.36C488.042 356.605 487.615 352.467 487.615 347.944V310.824H495.935V345.256C495.935 349.949 496.276 353.917 496.959 357.16C497.642 360.403 498.751 363.048 500.287 365.096C501.823 367.059 503.786 368.509 506.175 369.448C508.65 370.301 511.636 370.728 515.135 370.728C519.06 370.728 522.474 370.515 525.375 370.088C528.276 369.661 530.111 369.277 530.879 368.936V310.824H539.199V374.696ZM569.578 377H561.258V310.824H569.578V377ZM571.498 290.856C571.498 292.819 570.901 294.397 569.706 295.592C568.511 296.701 567.061 297.256 565.354 297.256C563.647 297.256 562.197 296.701 561.002 295.592C559.807 294.397 559.21 292.819 559.21 290.856C559.21 288.893 559.807 287.357 561.002 286.248C562.197 285.053 563.647 284.456 565.354 284.456C567.061 284.456 568.511 285.053 569.706 286.248C570.901 287.357 571.498 288.893 571.498 290.856ZM619.025 378.408C613.905 378.408 609.382 377.597 605.457 375.976C601.532 374.355 598.246 372.051 595.601 369.064C593.041 365.992 591.078 362.365 589.713 358.184C588.348 353.917 587.665 349.224 587.665 344.104C587.665 338.899 588.348 334.163 589.713 329.896C591.164 325.629 593.212 321.96 595.857 318.888C598.502 315.816 601.702 313.469 605.457 311.848C609.212 310.141 613.436 309.288 618.129 309.288C621.713 309.288 625.041 309.587 628.113 310.184C631.27 310.781 633.702 311.549 635.409 312.488L633.233 319.656C631.526 318.803 629.606 318.12 627.473 317.608C625.34 317.096 622.481 316.84 618.897 316.84C611.558 316.84 605.969 319.229 602.129 324.008C598.374 328.701 596.497 335.4 596.497 344.104C596.497 348.029 596.924 351.656 597.777 354.984C598.63 358.227 599.996 361.043 601.873 363.432C603.836 365.736 606.31 367.571 609.297 368.936C612.369 370.216 616.081 370.856 620.433 370.856C624.017 370.856 627.004 370.472 629.393 369.704C631.868 368.851 633.66 368.125 634.769 367.528L636.561 374.696C635.025 375.549 632.593 376.36 629.265 377.128C626.022 377.981 622.609 378.408 619.025 378.408ZM646.54 343.848C646.54 338.045 647.351 333.011 648.972 328.744C650.679 324.392 652.855 320.765 655.5 317.864C658.231 314.963 661.303 312.829 664.716 311.464C668.215 310.013 671.799 309.288 675.468 309.288C683.575 309.288 690.017 311.933 694.796 317.224C699.66 322.515 702.092 330.664 702.092 341.672C702.092 342.355 702.049 343.037 701.964 343.72C701.964 344.403 701.921 345.043 701.836 345.64H655.372C655.628 353.747 657.633 359.976 661.388 364.328C665.143 368.68 671.116 370.856 679.308 370.856C683.831 370.856 687.415 370.429 690.06 369.576C692.705 368.723 694.625 367.997 695.82 367.4L697.356 374.568C696.161 375.251 693.9 376.061 690.572 377C687.329 377.939 683.489 378.408 679.052 378.408C673.249 378.408 668.3 377.555 664.204 375.848C660.108 374.141 656.737 371.752 654.092 368.68C651.447 365.608 649.527 361.981 648.332 357.8C647.137 353.533 646.54 348.883 646.54 343.848ZM693.516 338.6C693.345 331.688 691.724 326.312 688.652 322.472C685.58 318.632 681.228 316.712 675.596 316.712C672.609 316.712 669.921 317.309 667.532 318.504C665.228 319.699 663.18 321.32 661.388 323.368C659.681 325.331 658.316 327.635 657.292 330.28C656.353 332.925 655.799 335.699 655.628 338.6H693.516Z" fill="white"/>
<path d="M452.203 76.8921C459.58 81.612 459.58 92.3879 452.203 97.1079L368.718 150.527C360.73 155.638 350.25 149.902 350.25 140.419V33.5805C350.25 24.098 360.73 18.3618 368.718 23.4726L452.203 76.8921Z" fill="#E91E63"/>
</svg>
